<?xml version="1.0" encoding="UTF-8" standalone="no"?>
<!-- Created with Inkscape (http://www.inkscape.org/) -->

<svg
   width="22.42963mm"
   height="23.813299mm"
   viewBox="0 0 22.42963 23.813299"
   version="1.1"
   id="svg1"
   xmlns="http://www.w3.org/2000/svg"><defs
     id="defs1" /><g
     id="layer1"
     transform="translate(-94.824297,-133.07845)"><g
       id="g1"
       transform="matrix(0.26458333,0,0,0.26458333,92.809734,131.75566)"><path
         d="m 40.852,78.301 c -2.881,1.594 -5.881,1.288 -9.041,1.102 1.753,1.952 6.717,3.864 9.014,1.926 1.648,-1.382 3.492,-2.695 4.197,-4.834 0.557,-1.672 0.53,-4.074 -1.143,-5.124 0.983,3.159 -0.119,5.336 -3.027,6.93 z M 89.867,37.689 c 1.926,-5.708 2.947,-11.271 2.351,-16.887 -1.103,5.417 -2.363,7.196 -4.912,10.462 2.31,-4.886 3.014,-7.807 2.508,-11.989 -0.544,-4.435 -3.332,-8.537 -6.65,-12.055 0.317,2.735 0.649,3.97 -0.159,6.572 -3.996,-6.545 -8.072,-9.585 -18.029,-8.616 0.863,0 2.549,1.288 3.226,1.726 1.076,0.69 2.085,1.487 3.027,2.363 1.858,1.752 3.399,3.81 4.58,6.067 2.403,4.593 3.293,9.93 2.257,15.015 -1.42,6.957 -11.668,11.882 -17.497,15.6 -1.301,0.836 -1.606,1.248 -1.102,2.695 0.358,1.036 0.783,2.059 1.194,3.066 -2.137,-2.734 -4.142,-5.522 -5.35,-8.789 -0.744,-1.991 -0.571,-4.089 1.182,-5.509 1.992,-1.633 4.514,-1.089 6.863,-0.929 0,-2.43 -2.894,-3.12 -4.435,-4.342 -0.743,-0.61 -1.207,-1.473 -2.084,-1.938 -0.782,-0.411 -1.54,-0.278 -2.35,-0.464 -3.916,-0.836 -6.837,-3.239 -8.909,-6.558 0.081,2.23 -0.133,5.284 1.367,7.076 -2.761,-0.212 -4.155,-2.125 -5.669,-4.195 -0.663,3.346 2.271,5.111 4.78,6.399 -3.784,3.359 -5.217,8.085 -4.739,13.051 1.553,-3.837 2.747,-8.033 6.265,-10.582 -1.619,3.133 -2.934,5.841 -2.974,9.439 -0.012,1.009 0.345,2.177 0.239,3.16 -0.093,0.836 -0.796,1.46 -1.433,2.07 -0.837,0.797 -1.78,1.528 -2.788,2.111 0.716,-0.822 2.987,-2.88 2.31,-3.996 -0.226,-0.359 -1.553,-0.704 -2.004,-0.969 -0.319,-0.186 -0.637,-0.372 -0.942,-0.584 -0.067,-0.04 -0.133,-0.093 -0.212,-0.146 -0.067,-0.04 -0.133,-0.093 -0.2,-0.132 -5.828,-3.717 -16.222,-8.577 -17.643,-15.533 -0.503,-2.469 -0.557,-4.992 -0.186,-7.461 0.372,-2.629 1.208,-5.191 2.444,-7.554 1.182,-2.257 2.721,-4.315 4.58,-6.067 0.942,-0.876 1.951,-1.673 3.026,-2.363 0.678,-0.438 2.363,-1.726 3.227,-1.726 -9.958,-0.969 -14.033,2.071 -18.029,8.616 -0.81,-2.602 -0.478,-3.837 -0.16,-6.572 -3.318,3.518 -6.106,7.62 -6.65,12.055 -0.359,2.92 -0.12,5.218 0.85,8.005 0.412,1.208 0.969,2.509 1.672,3.983 -0.558,-0.704 -1.062,-1.354 -1.5,-1.965 -1.606,-2.243 -2.562,-4.262 -3.425,-8.497 -0.597,5.615 0.425,11.178 2.35,16.887 1.593,4.594 8.009,9.691 12.299,13.09 0.052,0.054 0.105,0.094 0.159,0.134 0.464,0.371 0.916,0.716 1.34,1.035 -0.039,-0.015 -0.08,-0.026 -0.12,-0.04 -3.519,-0.89 -7.5,-3.558 -9.744,-6.531 0.278,0.637 0.583,1.327 0.916,2.045 1.381,2.933 3.134,6.397 4.885,8.642 0.332,0.438 0.691,0.85 1.076,1.249 0.199,0.197 0.398,0.384 0.598,0.583 0.319,0.292 0.663,0.584 1.008,0.863 0.146,0.119 0.293,0.238 0.438,0.346 1.58,1.208 3.372,2.203 5.217,3.039 0.013,0.014 0.027,0.027 0.04,0.014 1.474,0.782 2.934,1.566 4.328,2.47 2.244,1.46 9.275,3.239 11.267,5.005 2.217,1.978 3.796,4.354 2.761,7.447 -0.942,2.788 -3.545,5.138 -6.001,6.612 -1.142,0.69 -2.377,1.248 -3.638,1.685 -0.544,0.188 -4.248,0.917 -4.302,1.209 -0.186,1.128 5.457,1.66 6.306,1.594 6.584,-0.426 10.608,-8.232 9.492,-14.272 0.544,0.518 1.938,1.421 2.205,2.124 0.265,0.691 -0.08,2.138 -0.173,2.854 -0.239,1.846 -0.757,3.638 -1.566,5.31 -0.65,1.316 -1.461,2.563 -2.562,3.559 -1.208,1.103 -2.761,1.368 -3.997,2.298 4.9,6.584 13.874,6.637 18.707,-0.067 -6.411,-2.602 -7.886,-7.859 -8.311,-14.324 -0.199,-2.961 -1.673,-5.642 -2.51,-8.471 -1.008,-3.411 -1.58,-6.93 -1.792,-10.488 1.807,3.094 2.429,6.892 3.785,10.224 0.557,1.395 1.193,2.813 1.686,4.248 0.717,2.098 0.438,4.261 0.85,6.399 0.704,3.61 2.271,7.526 5.602,9.452 2.603,1.514 8.086,1.964 10.33,-0.505 -5.085,-1.143 -11.564,-3.558 -13.714,-8.868 -0.864,-2.15 -0.678,-5.244 -0.492,-7.515 0.12,-1.3 0.267,-2.895 1.022,-3.995 0.783,-1.143 2.031,-1.263 3.279,-1.688 5.071,-1.686 15.952,-4.035 19.325,-8.39 2.177,-2.788 4.368,-7.46 5.801,-10.687 -2.271,3.014 -6.319,5.708 -9.863,6.572 4.419,-3.334 12.003,-9.109 13.796,-14.261 z m -30.786,36.92 c -0.079,-0.278 -0.398,-3.584 -0.571,-3.584 -0.81,-0.332 -0.425,4.475 -0.306,4.858 0.531,1.899 1.659,3.32 3.161,4.568 3.317,2.748 7.129,1.327 10.288,-1.05 -3.398,0.212 -6.611,0.505 -9.665,-1.38 -1.341,-0.835 -2.417,-1.871 -2.907,-3.412 z"
         id="path1"
         style="fill:#e2725b;fill-opacity:1" /></g></g></svg>
